solid OpenSCAD_Model
  facet normal -1 0 0
    outer loop
      vertex 23.675 -25.5 4.175
      vertex 23.675 -45 3.175
      vertex 23.675 -45 4.175
    endloop
  endfacet
  facet normal -1 0 0
    outer loop
      vertex 23.675 -45 -3.175
      vertex 23.675 -45 3.175
      vertex 23.675 -25.5 4.175
    endloop
  endfacet
  facet normal -1 0 0
    outer loop
      vertex 23.675 -45 -3.175
      vertex 23.675 -25.5 4.175
      vertex 23.675 -25.5 -2.175
    endloop
  endfacet
  facet normal -1 0 0
    outer loop
      vertex 23.675 -25.5 -3.175
      vertex 23.675 -45 -3.175
      vertex 23.675 -25.5 -2.175
    endloop
  endfacet
  facet normal 0 -1 -2.22045e-16
    outer loop
      vertex 32.175 -45 3.175
      vertex 23.675 -45 3.175
      vertex 23.675 -45 -3.175
    endloop
  endfacet
  facet normal 0 -1 -2.22045e-16
    outer loop
      vertex 32.175 -45 -3.175
      vertex 32.175 -45 3.175
      vertex 23.675 -45 -3.175
    endloop
  endfacet
  facet normal 0 2.22045e-16 -1
    outer loop
      vertex 23.675 -45 -3.175
      vertex 23.675 -25.5 -3.175
      vertex 32.175 -45 -3.175
    endloop
  endfacet
  facet normal 0 2.22045e-16 -1
    outer loop
      vertex 32.175 -45 -3.175
      vertex 23.675 -25.5 -3.175
      vertex 32.175 -25.5 -3.175
    endloop
  endfacet
  facet normal 0 1 2.22045e-16
    outer loop
      vertex 23.675 -25.5 -2.175
      vertex 32.175 -25.5 -2.175
      vertex 23.675 -25.5 -3.175
    endloop
  endfacet
  facet normal 0 1 2.22045e-16
    outer loop
      vertex 23.675 -25.5 -3.175
      vertex 32.175 -25.5 -2.175
      vertex 32.175 -25.5 -3.175
    endloop
  endfacet
  facet normal 0 1 2.22045e-16
    outer loop
      vertex 23.675 -25.5 4.175
      vertex 32.175 -25.5 4.175
      vertex 23.675 -25.5 -2.175
    endloop
  endfacet
  facet normal 0 1 2.22045e-16
    outer loop
      vertex 23.675 -25.5 -2.175
      vertex 32.175 -25.5 4.175
      vertex 32.175 -25.5 -2.175
    endloop
  endfacet
  facet normal 0 -2.22045e-16 1
    outer loop
      vertex 23.675 -25.5 4.175
      vertex 23.675 -45 4.175
      vertex 32.175 -45 4.175
    endloop
  endfacet
  facet normal 0 -2.22045e-16 1
    outer loop
      vertex 32.175 -25.5 4.175
      vertex 23.675 -25.5 4.175
      vertex 32.175 -45 4.175
    endloop
  endfacet
  facet normal 0 -1 -2.22045e-16
    outer loop
      vertex 32.175 -45 4.175
      vertex 23.675 -45 4.175
      vertex 23.675 -45 3.175
    endloop
  endfacet
  facet normal 0 -1 -2.22045e-16
    outer loop
      vertex 32.175 -45 3.175
      vertex 32.175 -45 4.175
      vertex 23.675 -45 3.175
    endloop
  endfacet
  facet normal 1 0 0
    outer loop
      vertex 32.175 -25.5 -2.175
      vertex 32.175 -45 3.175
      vertex 32.175 -25.5 -3.175
    endloop
  endfacet
  facet normal 1 0 0
    outer loop
      vertex 32.175 -25.5 -3.175
      vertex 32.175 -45 3.175
      vertex 32.175 -45 -3.175
    endloop
  endfacet
  facet normal 1 0 0
    outer loop
      vertex 32.175 -25.5 4.175
      vertex 32.175 -45 3.175
      vertex 32.175 -25.5 -2.175
    endloop
  endfacet
  facet normal 1 0 0
    outer loop
      vertex 32.175 -45 4.175
      vertex 32.175 -45 3.175
      vertex 32.175 -25.5 4.175
    endloop
  endfacet
  facet normal -1 0 0
    outer loop
      vertex 13.175 -41 4.175
      vertex 13.175 -45 3.175
      vertex 13.175 -45 4.175
    endloop
  endfacet
  facet normal -1 0 0
    outer loop
      vertex 13.175 -45 -3.175
      vertex 13.175 -45 3.175
      vertex 13.175 -41 4.175
    endloop
  endfacet
  facet normal -1 0 0
    outer loop
      vertex 13.175 -45 -3.175
      vertex 13.175 -41 4.175
      vertex 13.175 -41 -2.175
    endloop
  endfacet
  facet normal -1 0 0
    outer loop
      vertex 13.175 -41 -3.175
      vertex 13.175 -45 -3.175
      vertex 13.175 -41 -2.175
    endloop
  endfacet
  facet normal 0 -1 -2.22045e-16
    outer loop
      vertex 23.675 -45 3.175
      vertex 13.175 -45 3.175
      vertex 13.175 -45 -3.175
    endloop
  endfacet
  facet normal 0 -1 -2.22045e-16
    outer loop
      vertex 23.675 -45 -3.175
      vertex 23.675 -45 3.175
      vertex 13.175 -45 -3.175
    endloop
  endfacet
  facet normal 0 2.22045e-16 -1
    outer loop
      vertex 13.175 -45 -3.175
      vertex 13.175 -41 -3.175
      vertex 23.675 -45 -3.175
    endloop
  endfacet
  facet normal 0 2.22045e-16 -1
    outer loop
      vertex 23.675 -45 -3.175
      vertex 13.175 -41 -3.175
      vertex 23.675 -41 -3.175
    endloop
  endfacet
  facet normal 0 1 2.22045e-16
    outer loop
      vertex 13.175 -41 -2.175
      vertex 23.675 -41 -2.175
      vertex 13.175 -41 -3.175
    endloop
  endfacet
  facet normal 0 1 2.22045e-16
    outer loop
      vertex 13.175 -41 -3.175
      vertex 23.675 -41 -2.175
      vertex 23.675 -41 -3.175
    endloop
  endfacet
  facet normal 0 1 2.22045e-16
    outer loop
      vertex 13.175 -41 4.175
      vertex 23.675 -41 4.175
      vertex 13.175 -41 -2.175
    endloop
  endfacet
  facet normal 0 1 2.22045e-16
    outer loop
      vertex 13.175 -41 -2.175
      vertex 23.675 -41 4.175
      vertex 23.675 -41 -2.175
    endloop
  endfacet
  facet normal 0 -2.22045e-16 1
    outer loop
      vertex 13.175 -41 4.175
      vertex 13.175 -45 4.175
      vertex 23.675 -45 4.175
    endloop
  endfacet
  facet normal 0 -2.22045e-16 1
    outer loop
      vertex 23.675 -41 4.175
      vertex 13.175 -41 4.175
      vertex 23.675 -45 4.175
    endloop
  endfacet
  facet normal 0 -1 -2.22045e-16
    outer loop
      vertex 23.675 -45 4.175
      vertex 13.175 -45 4.175
      vertex 13.175 -45 3.175
    endloop
  endfacet
  facet normal 0 -1 -2.22045e-16
    outer loop
      vertex 23.675 -45 3.175
      vertex 23.675 -45 4.175
      vertex 13.175 -45 3.175
    endloop
  endfacet
  facet normal 1 0 0
    outer loop
      vertex 23.675 -41 -2.175
      vertex 23.675 -45 3.175
      vertex 23.675 -41 -3.175
    endloop
  endfacet
  facet normal 1 0 0
    outer loop
      vertex 23.675 -41 -3.175
      vertex 23.675 -45 3.175
      vertex 23.675 -45 -3.175
    endloop
  endfacet
  facet normal 1 0 0
    outer loop
      vertex 23.675 -41 4.175
      vertex 23.675 -45 3.175
      vertex 23.675 -41 -2.175
    endloop
  endfacet
  facet normal 1 0 0
    outer loop
      vertex 23.675 -45 4.175
      vertex 23.675 -45 3.175
      vertex 23.675 -41 4.175
    endloop
  endfacet
  facet normal -1 0 0
    outer loop
      vertex 45.675 -25.5 4.175
      vertex 45.675 -45 3.175
      vertex 45.675 -45 4.175
    endloop
  endfacet
  facet normal -1 0 0
    outer loop
      vertex 45.675 -45 -3.175
      vertex 45.675 -45 3.175
      vertex 45.675 -25.5 4.175
    endloop
  endfacet
  facet normal -1 0 0
    outer loop
      vertex 45.675 -45 -3.175
      vertex 45.675 -25.5 4.175
      vertex 45.675 -25.5 -2.175
    endloop
  endfacet
  facet normal -1 0 0
    outer loop
      vertex 45.675 -25.5 -3.175
      vertex 45.675 -45 -3.175
      vertex 45.675 -25.5 -2.175
    endloop
  endfacet
  facet normal 0 -1 -2.22045e-16
    outer loop
      vertex 54.175 -45 3.175
      vertex 45.675 -45 3.175
      vertex 45.675 -45 -3.175
    endloop
  endfacet
  facet normal 0 -1 -2.22045e-16
    outer loop
      vertex 54.175 -45 -3.175
      vertex 54.175 -45 3.175
      vertex 45.675 -45 -3.175
    endloop
  endfacet
  facet normal 0 2.22045e-16 -1
    outer loop
      vertex 45.675 -45 -3.175
      vertex 45.675 -25.5 -3.175
      vertex 54.175 -45 -3.175
    endloop
  endfacet
  facet normal 0 2.22045e-16 -1
    outer loop
      vertex 54.175 -45 -3.175
      vertex 45.675 -25.5 -3.175
      vertex 54.175 -25.5 -3.175
    endloop
  endfacet
  facet normal 0 1 2.22045e-16
    outer loop
      vertex 45.675 -25.5 -2.175
      vertex 54.175 -25.5 -2.175
      vertex 45.675 -25.5 -3.175
    endloop
  endfacet
  facet normal 0 1 2.22045e-16
    outer loop
      vertex 45.675 -25.5 -3.175
      vertex 54.175 -25.5 -2.175
      vertex 54.175 -25.5 -3.175
    endloop
  endfacet
  facet normal 0 1 2.22045e-16
    outer loop
      vertex 45.675 -25.5 4.175
      vertex 54.175 -25.5 4.175
      vertex 45.675 -25.5 -2.175
    endloop
  endfacet
  facet normal 0 1 2.22045e-16
    outer loop
      vertex 45.675 -25.5 -2.175
      vertex 54.175 -25.5 4.175
      vertex 54.175 -25.5 -2.175
    endloop
  endfacet
  facet normal 0 -2.22045e-16 1
    outer loop
      vertex 45.675 -25.5 4.175
      vertex 45.675 -45 4.175
      vertex 54.175 -45 4.175
    endloop
  endfacet
  facet normal 0 -2.22045e-16 1
    outer loop
      vertex 54.175 -25.5 4.175
      vertex 45.675 -25.5 4.175
      vertex 54.175 -45 4.175
    endloop
  endfacet
  facet normal 0 -1 -2.22045e-16
    outer loop
      vertex 54.175 -45 4.175
      vertex 45.675 -45 4.175
      vertex 45.675 -45 3.175
    endloop
  endfacet
  facet normal 0 -1 -2.22045e-16
    outer loop
      vertex 54.175 -45 3.175
      vertex 54.175 -45 4.175
      vertex 45.675 -45 3.175
    endloop
  endfacet
  facet normal 1 0 0
    outer loop
      vertex 54.175 -25.5 -2.175
      vertex 54.175 -45 3.175
      vertex 54.175 -25.5 -3.175
    endloop
  endfacet
  facet normal 1 0 0
    outer loop
      vertex 54.175 -25.5 -3.175
      vertex 54.175 -45 3.175
      vertex 54.175 -45 -3.175
    endloop
  endfacet
  facet normal 1 0 0
    outer loop
      vertex 54.175 -25.5 4.175
      vertex 54.175 -45 3.175
      vertex 54.175 -25.5 -2.175
    endloop
  endfacet
  facet normal 1 0 0
    outer loop
      vertex 54.175 -45 4.175
      vertex 54.175 -45 3.175
      vertex 54.175 -25.5 4.175
    endloop
  endfacet
  facet normal -1 0 0
    outer loop
      vertex 35.175 -41 4.175
      vertex 35.175 -45 3.175
      vertex 35.175 -45 4.175
    endloop
  endfacet
  facet normal -1 0 0
    outer loop
      vertex 35.175 -45 -3.175
      vertex 35.175 -45 3.175
      vertex 35.175 -41 4.175
    endloop
  endfacet
  facet normal -1 0 0
    outer loop
      vertex 35.175 -45 -3.175
      vertex 35.175 -41 4.175
      vertex 35.175 -41 -2.175
    endloop
  endfacet
  facet normal -1 0 0
    outer loop
      vertex 35.175 -41 -3.175
      vertex 35.175 -45 -3.175
      vertex 35.175 -41 -2.175
    endloop
  endfacet
  facet normal 0 -1 -2.22045e-16
    outer loop
      vertex 45.675 -45 3.175
      vertex 35.175 -45 3.175
      vertex 35.175 -45 -3.175
    endloop
  endfacet
  facet normal 0 -1 -2.22045e-16
    outer loop
      vertex 45.675 -45 -3.175
      vertex 45.675 -45 3.175
      vertex 35.175 -45 -3.175
    endloop
  endfacet
  facet normal 0 2.22045e-16 -1
    outer loop
      vertex 35.175 -45 -3.175
      vertex 35.175 -41 -3.175
      vertex 45.675 -45 -3.175
    endloop
  endfacet
  facet normal 0 2.22045e-16 -1
    outer loop
      vertex 45.675 -45 -3.175
      vertex 35.175 -41 -3.175
      vertex 45.675 -41 -3.175
    endloop
  endfacet
  facet normal 0 1 2.22045e-16
    outer loop
      vertex 35.175 -41 -2.175
      vertex 45.675 -41 -2.175
      vertex 35.175 -41 -3.175
    endloop
  endfacet
  facet normal 0 1 2.22045e-16
    outer loop
      vertex 35.175 -41 -3.175
      vertex 45.675 -41 -2.175
      vertex 45.675 -41 -3.175
    endloop
  endfacet
  facet normal 0 1 2.22045e-16
    outer loop
      vertex 35.175 -41 4.175
      vertex 45.675 -41 4.175
      vertex 35.175 -41 -2.175
    endloop
  endfacet
  facet normal 0 1 2.22045e-16
    outer loop
      vertex 35.175 -41 -2.175
      vertex 45.675 -41 4.175
      vertex 45.675 -41 -2.175
    endloop
  endfacet
  facet normal 0 -2.22045e-16 1
    outer loop
      vertex 35.175 -41 4.175
      vertex 35.175 -45 4.175
      vertex 45.675 -45 4.175
    endloop
  endfacet
  facet normal 0 -2.22045e-16 1
    outer loop
      vertex 45.675 -41 4.175
      vertex 35.175 -41 4.175
      vertex 45.675 -45 4.175
    endloop
  endfacet
  facet normal 0 -1 -2.22045e-16
    outer loop
      vertex 45.675 -45 4.175
      vertex 35.175 -45 4.175
      vertex 35.175 -45 3.175
    endloop
  endfacet
  facet normal 0 -1 -2.22045e-16
    outer loop
      vertex 45.675 -45 3.175
      vertex 45.675 -45 4.175
      vertex 35.175 -45 3.175
    endloop
  endfacet
  facet normal 1 0 0
    outer loop
      vertex 45.675 -41 -2.175
      vertex 45.675 -45 3.175
      vertex 45.675 -41 -3.175
    endloop
  endfacet
  facet normal 1 0 0
    outer loop
      vertex 45.675 -41 -3.175
      vertex 45.675 -45 3.175
      vertex 45.675 -45 -3.175
    endloop
  endfacet
  facet normal 1 0 0
    outer loop
      vertex 45.675 -41 4.175
      vertex 45.675 -45 3.175
      vertex 45.675 -41 -2.175
    endloop
  endfacet
  facet normal 1 0 0
    outer loop
      vertex 45.675 -45 4.175
      vertex 45.675 -45 3.175
      vertex 45.675 -41 4.175
    endloop
  endfacet
  facet normal -1 0 0
    outer loop
      vertex 67.675 -25.5 4.175
      vertex 67.675 -45 3.175
      vertex 67.675 -45 4.175
    endloop
  endfacet
  facet normal -1 0 0
    outer loop
      vertex 67.675 -45 -3.175
      vertex 67.675 -45 3.175
      vertex 67.675 -25.5 4.175
    endloop
  endfacet
  facet normal -1 0 0
    outer loop
      vertex 67.675 -45 -3.175
      vertex 67.675 -25.5 4.175
      vertex 67.675 -25.5 -2.175
    endloop
  endfacet
  facet normal -1 0 0
    outer loop
      vertex 67.675 -25.5 -3.175
      vertex 67.675 -45 -3.175
      vertex 67.675 -25.5 -2.175
    endloop
  endfacet
  facet normal 0 -1 -2.22045e-16
    outer loop
      vertex 76.175 -45 3.175
      vertex 67.675 -45 3.175
      vertex 67.675 -45 -3.175
    endloop
  endfacet
  facet normal 0 -1 -2.22045e-16
    outer loop
      vertex 76.175 -45 -3.175
      vertex 76.175 -45 3.175
      vertex 67.675 -45 -3.175
    endloop
  endfacet
  facet normal 0 2.22045e-16 -1
    outer loop
      vertex 67.675 -45 -3.175
      vertex 67.675 -25.5 -3.175
      vertex 76.175 -45 -3.175
    endloop
  endfacet
  facet normal 0 2.22045e-16 -1
    outer loop
      vertex 76.175 -45 -3.175
      vertex 67.675 -25.5 -3.175
      vertex 76.175 -25.5 -3.175
    endloop
  endfacet
  facet normal 0 1 2.22045e-16
    outer loop
      vertex 67.675 -25.5 -2.175
      vertex 76.175 -25.5 -2.175
      vertex 67.675 -25.5 -3.175
    endloop
  endfacet
  facet normal 0 1 2.22045e-16
    outer loop
      vertex 67.675 -25.5 -3.175
      vertex 76.175 -25.5 -2.175
      vertex 76.175 -25.5 -3.175
    endloop
  endfacet
  facet normal 0 1 2.22045e-16
    outer loop
      vertex 67.675 -25.5 4.175
      vertex 76.175 -25.5 4.175
      vertex 67.675 -25.5 -2.175
    endloop
  endfacet
  facet normal 0 1 2.22045e-16
    outer loop
      vertex 67.675 -25.5 -2.175
      vertex 76.175 -25.5 4.175
      vertex 76.175 -25.5 -2.175
    endloop
  endfacet
  facet normal 0 -2.22045e-16 1
    outer loop
      vertex 67.675 -25.5 4.175
      vertex 67.675 -45 4.175
      vertex 76.175 -45 4.175
    endloop
  endfacet
  facet normal 0 -2.22045e-16 1
    outer loop
      vertex 76.175 -25.5 4.175
      vertex 67.675 -25.5 4.175
      vertex 76.175 -45 4.175
    endloop
  endfacet
  facet normal 0 -1 -2.22045e-16
    outer loop
      vertex 76.175 -45 4.175
      vertex 67.675 -45 4.175
      vertex 67.675 -45 3.175
    endloop
  endfacet
  facet normal 0 -1 -2.22045e-16
    outer loop
      vertex 76.175 -45 3.175
      vertex 76.175 -45 4.175
      vertex 67.675 -45 3.175
    endloop
  endfacet
  facet normal 1 0 0
    outer loop
      vertex 76.175 -25.5 -2.175
      vertex 76.175 -45 3.175
      vertex 76.175 -25.5 -3.175
    endloop
  endfacet
  facet normal 1 0 0
    outer loop
      vertex 76.175 -25.5 -3.175
      vertex 76.175 -45 3.175
      vertex 76.175 -45 -3.175
    endloop
  endfacet
  facet normal 1 0 0
    outer loop
      vertex 76.175 -25.5 4.175
      vertex 76.175 -45 3.175
      vertex 76.175 -25.5 -2.175
    endloop
  endfacet
  facet normal 1 0 0
    outer loop
      vertex 76.175 -45 4.175
      vertex 76.175 -45 3.175
      vertex 76.175 -25.5 4.175
    endloop
  endfacet
  facet normal -1 0 0
    outer loop
      vertex 57.175 -41 4.175
      vertex 57.175 -45 3.175
      vertex 57.175 -45 4.175
    endloop
  endfacet
  facet normal -1 0 0
    outer loop
      vertex 57.175 -45 -3.175
      vertex 57.175 -45 3.175
      vertex 57.175 -41 4.175
    endloop
  endfacet
  facet normal -1 0 0
    outer loop
      vertex 57.175 -45 -3.175
      vertex 57.175 -41 4.175
      vertex 57.175 -41 -2.175
    endloop
  endfacet
  facet normal -1 0 0
    outer loop
      vertex 57.175 -41 -3.175
      vertex 57.175 -45 -3.175
      vertex 57.175 -41 -2.175
    endloop
  endfacet
  facet normal 0 -1 -2.22045e-16
    outer loop
      vertex 67.675 -45 3.175
      vertex 57.175 -45 3.175
      vertex 57.175 -45 -3.175
    endloop
  endfacet
  facet normal 0 -1 -2.22045e-16
    outer loop
      vertex 67.675 -45 -3.175
      vertex 67.675 -45 3.175
      vertex 57.175 -45 -3.175
    endloop
  endfacet
  facet normal 0 2.22045e-16 -1
    outer loop
      vertex 57.175 -45 -3.175
      vertex 57.175 -41 -3.175
      vertex 67.675 -45 -3.175
    endloop
  endfacet
  facet normal 0 2.22045e-16 -1
    outer loop
      vertex 67.675 -45 -3.175
      vertex 57.175 -41 -3.175
      vertex 67.675 -41 -3.175
    endloop
  endfacet
  facet normal 0 1 2.22045e-16
    outer loop
      vertex 57.175 -41 -2.175
      vertex 67.675 -41 -2.175
      vertex 57.175 -41 -3.175
    endloop
  endfacet
  facet normal 0 1 2.22045e-16
    outer loop
      vertex 57.175 -41 -3.175
      vertex 67.675 -41 -2.175
      vertex 67.675 -41 -3.175
    endloop
  endfacet
  facet normal 0 1 2.22045e-16
    outer loop
      vertex 57.175 -41 4.175
      vertex 67.675 -41 4.175
      vertex 57.175 -41 -2.175
    endloop
  endfacet
  facet normal 0 1 2.22045e-16
    outer loop
      vertex 57.175 -41 -2.175
      vertex 67.675 -41 4.175
      vertex 67.675 -41 -2.175
    endloop
  endfacet
  facet normal 0 -2.22045e-16 1
    outer loop
      vertex 57.175 -41 4.175
      vertex 57.175 -45 4.175
      vertex 67.675 -45 4.175
    endloop
  endfacet
  facet normal 0 -2.22045e-16 1
    outer loop
      vertex 67.675 -41 4.175
      vertex 57.175 -41 4.175
      vertex 67.675 -45 4.175
    endloop
  endfacet
  facet normal 0 -1 -2.22045e-16
    outer loop
      vertex 67.675 -45 4.175
      vertex 57.175 -45 4.175
      vertex 57.175 -45 3.175
    endloop
  endfacet
  facet normal 0 -1 -2.22045e-16
    outer loop
      vertex 67.675 -45 3.175
      vertex 67.675 -45 4.175
      vertex 57.175 -45 3.175
    endloop
  endfacet
  facet normal 1 0 0
    outer loop
      vertex 67.675 -41 -2.175
      vertex 67.675 -45 3.175
      vertex 67.675 -41 -3.175
    endloop
  endfacet
  facet normal 1 0 0
    outer loop
      vertex 67.675 -41 -3.175
      vertex 67.675 -45 3.175
      vertex 67.675 -45 -3.175
    endloop
  endfacet
  facet normal 1 0 0
    outer loop
      vertex 67.675 -41 4.175
      vertex 67.675 -45 3.175
      vertex 67.675 -41 -2.175
    endloop
  endfacet
  facet normal 1 0 0
    outer loop
      vertex 67.675 -45 4.175
      vertex 67.675 -45 3.175
      vertex 67.675 -41 4.175
    endloop
  endfacet
  facet normal -1 0 0
    outer loop
      vertex 89.675 -25.5 4.175
      vertex 89.675 -45 3.175
      vertex 89.675 -45 4.175
    endloop
  endfacet
  facet normal -1 0 0
    outer loop
      vertex 89.675 -45 -3.175
      vertex 89.675 -45 3.175
      vertex 89.675 -25.5 4.175
    endloop
  endfacet
  facet normal -1 0 0
    outer loop
      vertex 89.675 -45 -3.175
      vertex 89.675 -25.5 4.175
      vertex 89.675 -25.5 -2.175
    endloop
  endfacet
  facet normal -1 0 0
    outer loop
      vertex 89.675 -25.5 -3.175
      vertex 89.675 -45 -3.175
      vertex 89.675 -25.5 -2.175
    endloop
  endfacet
  facet normal 0 -1 -2.22045e-16
    outer loop
      vertex 98.175 -45 3.175
      vertex 89.675 -45 3.175
      vertex 89.675 -45 -3.175
    endloop
  endfacet
  facet normal 0 -1 -2.22045e-16
    outer loop
      vertex 98.175 -45 -3.175
      vertex 98.175 -45 3.175
      vertex 89.675 -45 -3.175
    endloop
  endfacet
  facet normal 0 2.22045e-16 -1
    outer loop
      vertex 89.675 -45 -3.175
      vertex 89.675 -25.5 -3.175
      vertex 98.175 -45 -3.175
    endloop
  endfacet
  facet normal 0 2.22045e-16 -1
    outer loop
      vertex 98.175 -45 -3.175
      vertex 89.675 -25.5 -3.175
      vertex 98.175 -25.5 -3.175
    endloop
  endfacet
  facet normal 0 1 2.22045e-16
    outer loop
      vertex 89.675 -25.5 -2.175
      vertex 98.175 -25.5 -2.175
      vertex 89.675 -25.5 -3.175
    endloop
  endfacet
  facet normal 0 1 2.22045e-16
    outer loop
      vertex 89.675 -25.5 -3.175
      vertex 98.175 -25.5 -2.175
      vertex 98.175 -25.5 -3.175
    endloop
  endfacet
  facet normal 0 1 2.22045e-16
    outer loop
      vertex 89.675 -25.5 4.175
      vertex 98.175 -25.5 4.175
      vertex 89.675 -25.5 -2.175
    endloop
  endfacet
  facet normal 0 1 2.22045e-16
    outer loop
      vertex 89.675 -25.5 -2.175
      vertex 98.175 -25.5 4.175
      vertex 98.175 -25.5 -2.175
    endloop
  endfacet
  facet normal 0 -2.22045e-16 1
    outer loop
      vertex 89.675 -25.5 4.175
      vertex 89.675 -45 4.175
      vertex 98.175 -45 4.175
    endloop
  endfacet
  facet normal 0 -2.22045e-16 1
    outer loop
      vertex 98.175 -25.5 4.175
      vertex 89.675 -25.5 4.175
      vertex 98.175 -45 4.175
    endloop
  endfacet
  facet normal 0 -1 -2.22045e-16
    outer loop
      vertex 98.175 -45 4.175
      vertex 89.675 -45 4.175
      vertex 89.675 -45 3.175
    endloop
  endfacet
  facet normal 0 -1 -2.22045e-16
    outer loop
      vertex 98.175 -45 3.175
      vertex 98.175 -45 4.175
      vertex 89.675 -45 3.175
    endloop
  endfacet
  facet normal 1 0 0
    outer loop
      vertex 98.175 -25.5 -2.175
      vertex 98.175 -45 3.175
      vertex 98.175 -25.5 -3.175
    endloop
  endfacet
  facet normal 1 0 0
    outer loop
      vertex 98.175 -25.5 -3.175
      vertex 98.175 -45 3.175
      vertex 98.175 -45 -3.175
    endloop
  endfacet
  facet normal 1 0 0
    outer loop
      vertex 98.175 -25.5 4.175
      vertex 98.175 -45 3.175
      vertex 98.175 -25.5 -2.175
    endloop
  endfacet
  facet normal 1 0 0
    outer loop
      vertex 98.175 -45 4.175
      vertex 98.175 -45 3.175
      vertex 98.175 -25.5 4.175
    endloop
  endfacet
  facet normal -1 0 0
    outer loop
      vertex 79.175 -41 4.175
      vertex 79.175 -45 3.175
      vertex 79.175 -45 4.175
    endloop
  endfacet
  facet normal -1 0 0
    outer loop
      vertex 79.175 -45 -3.175
      vertex 79.175 -45 3.175
      vertex 79.175 -41 4.175
    endloop
  endfacet
  facet normal -1 0 0
    outer loop
      vertex 79.175 -45 -3.175
      vertex 79.175 -41 4.175
      vertex 79.175 -41 -2.175
    endloop
  endfacet
  facet normal -1 0 0
    outer loop
      vertex 79.175 -41 -3.175
      vertex 79.175 -45 -3.175
      vertex 79.175 -41 -2.175
    endloop
  endfacet
  facet normal 0 -1 -2.22045e-16
    outer loop
      vertex 89.675 -45 3.175
      vertex 79.175 -45 3.175
      vertex 79.175 -45 -3.175
    endloop
  endfacet
  facet normal 0 -1 -2.22045e-16
    outer loop
      vertex 89.675 -45 -3.175
      vertex 89.675 -45 3.175
      vertex 79.175 -45 -3.175
    endloop
  endfacet
  facet normal 0 2.22045e-16 -1
    outer loop
      vertex 79.175 -45 -3.175
      vertex 79.175 -41 -3.175
      vertex 89.675 -45 -3.175
    endloop
  endfacet
  facet normal 0 2.22045e-16 -1
    outer loop
      vertex 89.675 -45 -3.175
      vertex 79.175 -41 -3.175
      vertex 89.675 -41 -3.175
    endloop
  endfacet
  facet normal 0 1 2.22045e-16
    outer loop
      vertex 79.175 -41 -2.175
      vertex 89.675 -41 -2.175
      vertex 79.175 -41 -3.175
    endloop
  endfacet
  facet normal 0 1 2.22045e-16
    outer loop
      vertex 79.175 -41 -3.175
      vertex 89.675 -41 -2.175
      vertex 89.675 -41 -3.175
    endloop
  endfacet
  facet normal 0 1 2.22045e-16
    outer loop
      vertex 79.175 -41 4.175
      vertex 89.675 -41 4.175
      vertex 79.175 -41 -2.175
    endloop
  endfacet
  facet normal 0 1 2.22045e-16
    outer loop
      vertex 79.175 -41 -2.175
      vertex 89.675 -41 4.175
      vertex 89.675 -41 -2.175
    endloop
  endfacet
  facet normal 0 -2.22045e-16 1
    outer loop
      vertex 79.175 -41 4.175
      vertex 79.175 -45 4.175
      vertex 89.675 -45 4.175
    endloop
  endfacet
  facet normal 0 -2.22045e-16 1
    outer loop
      vertex 89.675 -41 4.175
      vertex 79.175 -41 4.175
      vertex 89.675 -45 4.175
    endloop
  endfacet
  facet normal 0 -1 -2.22045e-16
    outer loop
      vertex 89.675 -45 4.175
      vertex 79.175 -45 4.175
      vertex 79.175 -45 3.175
    endloop
  endfacet
  facet normal 0 -1 -2.22045e-16
    outer loop
      vertex 89.675 -45 3.175
      vertex 89.675 -45 4.175
      vertex 79.175 -45 3.175
    endloop
  endfacet
  facet normal 1 0 0
    outer loop
      vertex 89.675 -41 -2.175
      vertex 89.675 -45 3.175
      vertex 89.675 -41 -3.175
    endloop
  endfacet
  facet normal 1 0 0
    outer loop
      vertex 89.675 -41 -3.175
      vertex 89.675 -45 3.175
      vertex 89.675 -45 -3.175
    endloop
  endfacet
  facet normal 1 0 0
    outer loop
      vertex 89.675 -41 4.175
      vertex 89.675 -45 3.175
      vertex 89.675 -41 -2.175
    endloop
  endfacet
  facet normal 1 0 0
    outer loop
      vertex 89.675 -45 4.175
      vertex 89.675 -45 3.175
      vertex 89.675 -41 4.175
    endloop
  endfacet
endsolid OpenSCAD_Model
