solid OpenSCAD_Model
  facet normal -1 0 0
    outer loop
      vertex 0 0 0
      vertex 0 0 20
      vertex 0 9.4 0
    endloop
  endfacet
  facet normal -1 0 0
    outer loop
      vertex 0 9.4 0
      vertex 0 0 20
      vertex 0 9.4 20
    endloop
  endfacet
  facet normal 0 -1 0
    outer loop
      vertex 0 0 20
      vertex 0 0 0
      vertex 25 0 0
    endloop
  endfacet
  facet normal 0 -1 0
    outer loop
      vertex 25 0 20
      vertex 0 0 20
      vertex 25 0 0
    endloop
  endfacet
  facet normal 0 0 -1
    outer loop
      vertex 25 2 0
      vertex 25 0 0
      vertex 15 2 0
    endloop
  endfacet
  facet normal 0 0 -1
    outer loop
      vertex 25 7.4 0
      vertex 0 9.4 0
      vertex 25 9.4 0
    endloop
  endfacet
  facet normal 0 0 -1
    outer loop
      vertex 15 7.4 0
      vertex 0 9.4 0
      vertex 25 7.4 0
    endloop
  endfacet
  facet normal 0 0 -1
    outer loop
      vertex 0 0 0
      vertex 0 9.4 0
      vertex 15 2 0
    endloop
  endfacet
  facet normal 0 0 -1
    outer loop
      vertex 0 0 0
      vertex 15 2 0
      vertex 25 0 0
    endloop
  endfacet
  facet normal 0 0 -1
    outer loop
      vertex 15 2 0
      vertex 0 9.4 0
      vertex 15 7.4 0
    endloop
  endfacet
  facet normal 0 1 0
    outer loop
      vertex 0 9.4 0
      vertex 0 9.4 20
      vertex 25 9.4 0
    endloop
  endfacet
  facet normal 0 1 0
    outer loop
      vertex 25 9.4 0
      vertex 0 9.4 20
      vertex 25 9.4 20
    endloop
  endfacet
  facet normal 0 0 1
    outer loop
      vertex 15 2 20
      vertex 0 0 20
      vertex 25 0 20
    endloop
  endfacet
  facet normal 0 0 1
    outer loop
      vertex 15 2 20
      vertex 15 7.4 20
      vertex 0 9.4 20
    endloop
  endfacet
  facet normal 0 0 1
    outer loop
      vertex 0 9.4 20
      vertex 0 0 20
      vertex 15 2 20
    endloop
  endfacet
  facet normal 0 0 1
    outer loop
      vertex 25 7.4 20
      vertex 0 9.4 20
      vertex 15 7.4 20
    endloop
  endfacet
  facet normal 0 0 1
    outer loop
      vertex 25 9.4 20
      vertex 0 9.4 20
      vertex 25 7.4 20
    endloop
  endfacet
  facet normal 0 0 1
    outer loop
      vertex 25 2 20
      vertex 15 2 20
      vertex 25 0 20
    endloop
  endfacet
  facet normal 1 0 0
    outer loop
      vertex 25 0 20
      vertex 25 0 0
      vertex 25 2 0
    endloop
  endfacet
  facet normal 1 0 0
    outer loop
      vertex 25 2 20
      vertex 25 0 20
      vertex 25 2 0
    endloop
  endfacet
  facet normal 0 1 0
    outer loop
      vertex 15 2 0
      vertex 15 2 20
      vertex 25 2 0
    endloop
  endfacet
  facet normal 0 1 0
    outer loop
      vertex 25 2 0
      vertex 15 2 20
      vertex 25 2 20
    endloop
  endfacet
  facet normal 1 0 0
    outer loop
      vertex 15 2 20
      vertex 15 2 0
      vertex 15 7.4 0
    endloop
  endfacet
  facet normal 1 0 0
    outer loop
      vertex 15 7.4 20
      vertex 15 2 20
      vertex 15 7.4 0
    endloop
  endfacet
  facet normal 0 -1 0
    outer loop
      vertex 15 7.4 20
      vertex 15 7.4 0
      vertex 25 7.4 0
    endloop
  endfacet
  facet normal 0 -1 0
    outer loop
      vertex 25 7.4 20
      vertex 15 7.4 20
      vertex 25 7.4 0
    endloop
  endfacet
  facet normal 1 0 0
    outer loop
      vertex 25 7.4 20
      vertex 25 7.4 0
      vertex 25 9.4 0
    endloop
  endfacet
  facet normal 1 0 0
    outer loop
      vertex 25 9.4 20
      vertex 25 7.4 20
      vertex 25 9.4 0
    endloop
  endfacet
endsolid OpenSCAD_Model
